<svg width="15" height="16" viewBox="0 0 15 16" fill="none" xmlns="http://www.w3.org/2000/svg">
<path d="M14.7949 13.4697L11.874 10.5488C11.7422 10.417 11.5635 10.3438 11.376 10.3438H10.8984C11.707 9.30957 12.1875 8.00879 12.1875 6.59375C12.1875 3.22754 9.45996 0.5 6.09375 0.5C2.72754 0.5 0 3.22754 0 6.59375C0 9.95996 2.72754 12.6875 6.09375 12.6875C7.50879 12.6875 8.80957 12.207 9.84375 11.3984V11.876C9.84375 12.0635 9.91699 12.2422 10.0488 12.374L12.9697 15.2949C13.2451 15.5703 13.6904 15.5703 13.9629 15.2949L14.792 14.4658C15.0674 14.1904 15.0674 13.7451 14.7949 13.4697ZM6.09375 10.3438C4.02246 10.3438 2.34375 8.66797 2.34375 6.59375C2.34375 4.52246 4.01953 2.84375 6.09375 2.84375C8.16504 2.84375 9.84375 4.51953 9.84375 6.59375C9.84375 8.66504 8.16797 10.3438 6.09375 10.3438Z" fill="black"/>
</svg>
