<svg width="268" height="72" viewBox="0 0 268 72" fill="none" xmlns="http://www.w3.org/2000/svg">
<g clip-path="url(#clip0_10_183)">
<rect width="32.8375" height="32.8375" rx="16.4188" transform="matrix(1 0 0 -1 0 52.2937)" fill="#EB4A58"/>
<path d="M0 49.1952C7.1126 49.1952 12.3535 50.2827 19.0917 45.4162C25.83 40.5497 23.7711 39.6138 41.5526 38.678" stroke="white" stroke-width="2.24609"/>
<path d="M-2.23626 42.1874C4.85111 42.7859 9.98186 44.3107 17.1058 40.0285C24.2297 35.7463 22.2568 34.6405 40.054 35.2044" stroke="white" stroke-width="2.24609"/>
<path d="M-3.73069 36.1939C3.32727 37.0739 8.39332 38.8014 15.6819 34.806C22.9704 30.8105 21.0431 29.6271 38.8038 30.8983" stroke="white" stroke-width="2.24609"/>
</g>
<path d="M47.0885 43.8906C47.1471 43.9297 47.3033 43.998 47.5573 44.0957C47.8209 44.1934 48.1676 44.291 48.5973 44.3887C49.027 44.4766 49.5006 44.5205 50.0182 44.5205C51.0338 44.5205 51.8932 44.3057 52.5963 43.876C53.2994 43.4463 53.651 42.8506 53.651 42.0889C53.651 41.6299 53.4948 41.2441 53.1823 40.9316C52.8795 40.6191 52.4889 40.3604 52.0104 40.1553C51.5416 39.9404 50.858 39.6719 49.9596 39.3496C48.6412 38.8906 47.5524 38.4365 46.693 37.9873C45.8336 37.5381 45.0865 36.8887 44.4518 36.0391C43.8268 35.1895 43.5143 34.0859 43.5143 32.7285C43.5143 31.3906 43.8414 30.2432 44.4957 29.2861C45.1598 28.3193 46.068 27.5918 47.2203 27.1035C48.3727 26.6152 49.6764 26.3711 51.1315 26.3711C52.1276 26.3711 53.1139 26.459 54.0905 26.6348C55.0768 26.8105 55.8873 26.9961 56.5221 27.1914C57.1666 27.377 57.5719 27.5039 57.7379 27.5723L57.5768 33.0215H54.8229L54.0758 30.4727C53.9977 30.4531 53.8268 30.4092 53.5631 30.3408C53.2994 30.2725 52.9723 30.2041 52.5817 30.1357C52.191 30.0576 51.8102 30.0186 51.4391 30.0186C50.4235 30.0186 49.6373 30.2188 49.0807 30.6191C48.524 31.0195 48.2457 31.5322 48.2457 32.1572C48.2457 32.8018 48.5436 33.3096 49.1393 33.6807C49.7448 34.042 50.6969 34.4521 51.9957 34.9111C53.3141 35.3701 54.3981 35.8193 55.2477 36.2588C56.1071 36.6982 56.8395 37.3281 57.4449 38.1484C58.0602 38.9688 58.3678 40.0186 58.3678 41.2979C58.3678 42.7627 58.0162 44.0225 57.3131 45.0771C56.61 46.1221 55.6481 46.918 54.4274 47.4648C53.2067 48.002 51.8199 48.2705 50.2672 48.2705C49.2711 48.2705 48.275 48.1826 47.2789 48.0068C46.2926 47.8408 45.4723 47.6699 44.818 47.4941C44.1637 47.3086 43.7487 47.1865 43.5729 47.1279V41.3711H46.6344L47.0885 43.8906ZM65.3938 33.7393C65.3938 33.7002 65.7063 33.4756 66.3313 33.0654C66.966 32.6553 67.6887 32.2842 68.4992 31.9521C69.3098 31.6104 70.1155 31.4395 70.9162 31.4395C72.3518 31.4395 73.4699 31.9131 74.2707 32.8604C75.0715 33.8076 75.4719 35.1113 75.4719 36.7715V44.7256L77.5813 45.4727V47.875H69.3196V45.4727L70.9748 44.7256V37.5918C70.9748 36.8887 70.7893 36.3125 70.4182 35.8633C70.0471 35.4141 69.5539 35.1895 68.9387 35.1895C68.3821 35.1895 67.8645 35.3164 67.386 35.5703C66.9172 35.8145 66.5217 36.0879 66.1994 36.3906C65.8869 36.6836 65.7307 36.8496 65.7307 36.8887V44.7256L67.3713 45.4727V47.875H58.8313V45.4727L61.2336 44.7256V34.9697L58.8313 34.2227V31.8203L65.1887 31.6738L65.3938 33.7393ZM81.9412 40.7705C82.0194 41.9717 82.3807 42.9092 83.0252 43.583C83.6795 44.2471 84.5291 44.5791 85.574 44.5791C86.3162 44.5791 87.0584 44.4766 87.8006 44.2715C88.5526 44.0566 89.1727 43.8418 89.661 43.627C90.159 43.4023 90.4764 43.2461 90.6131 43.1582L91.9022 45.6484C91.9022 45.6875 91.5506 45.9365 90.8475 46.3955C90.1541 46.8447 89.2996 47.2549 88.284 47.626C87.2781 47.9873 86.2039 48.168 85.0614 48.168C82.5223 48.168 80.5887 47.4648 79.2606 46.0586C77.9324 44.6523 77.2684 42.6602 77.2684 40.082C77.2684 38.3438 77.5858 36.8203 78.2205 35.5117C78.8651 34.1934 79.7879 33.1777 80.9891 32.4648C82.1903 31.7422 83.616 31.3809 85.2664 31.3809C87.4637 31.3809 89.1483 32.0107 90.3201 33.2705C91.492 34.5303 92.078 36.249 92.078 38.4268C92.078 38.9053 92.0535 39.3691 92.0047 39.8184C91.9559 40.2676 91.9217 40.5508 91.9022 40.668L81.9412 40.7705ZM84.9735 34.9697C84.1531 34.9697 83.4842 35.248 82.9666 35.8047C82.449 36.3516 82.1268 37.0742 81.9998 37.9727H87.4344C87.4344 37.0742 87.2342 36.3516 86.8338 35.8047C86.4334 35.248 85.8133 34.9697 84.9735 34.9697ZM101.785 45.9268C101.785 45.9658 101.526 46.1855 101.008 46.5859C100.491 46.9863 99.8705 47.3525 99.1479 47.6846C98.4252 48.0068 97.683 48.168 96.9213 48.168C95.4565 48.168 94.309 47.7627 93.4789 46.9521C92.6586 46.1318 92.2485 44.9697 92.2485 43.4658C92.2485 41.7471 92.8637 40.4922 94.0942 39.7012C95.3246 38.9102 97.1166 38.5146 99.4701 38.5146H101.58V36.8594C101.58 35.3945 100.808 34.667 99.2651 34.6768C98.8061 34.6768 98.3813 34.7109 97.9907 34.7793C97.6 34.8477 97.2875 34.9209 97.0532 34.999C96.8285 35.0674 96.6869 35.1113 96.6283 35.1309L96.1742 37.0205H93.4789L93.2739 32.582C93.4496 32.5234 93.8793 32.3965 94.5629 32.2012C95.2563 32.0059 96.0815 31.8203 97.0385 31.6445C98.0053 31.4688 98.9184 31.3809 99.7778 31.3809C101.321 31.3809 102.546 31.5762 103.455 31.9668C104.363 32.3477 105.027 32.9727 105.447 33.8418C105.867 34.7012 106.077 35.8584 106.077 37.3135V44.7256L108.332 45.2676V47.6699L102.327 47.875L101.785 45.9268ZM96.599 43.0117C96.599 43.5977 96.7504 44.0469 97.0532 44.3594C97.3657 44.6621 97.8051 44.8135 98.3715 44.8135C98.85 44.8135 99.3237 44.6865 99.7924 44.4326C100.261 44.1689 100.657 43.9004 100.979 43.627C101.301 43.3438 101.501 43.1582 101.58 43.0703V41.0635H99.8657C98.7035 41.0635 97.8686 41.2197 97.3608 41.5322C96.853 41.8447 96.599 42.3379 96.599 43.0117ZM116.442 37.709L118.479 34.6475L117.16 34.2227V31.8203L124.909 31.6738V34.2227L122.8 34.6182L120.017 38.5439L123.371 44.7549L125.656 45.4727V47.875H120.105L116.384 40.5508H114.465V44.7256L116.12 45.4727V47.875H107.565V45.4727L109.968 44.7256V27.8652L107.565 27.2646V24.8623L114.465 24.6279V37.709H116.442ZM129.577 40.7705C129.655 41.9717 130.016 42.9092 130.661 43.583C131.315 44.2471 132.165 44.5791 133.21 44.5791C133.952 44.5791 134.694 44.4766 135.436 44.2715C136.188 44.0566 136.808 43.8418 137.297 43.627C137.795 43.4023 138.112 43.2461 138.249 43.1582L139.538 45.6484C139.538 45.6875 139.186 45.9365 138.483 46.3955C137.79 46.8447 136.935 47.2549 135.92 47.626C134.914 47.9873 133.839 48.168 132.697 48.168C130.158 48.168 128.224 47.4648 126.896 46.0586C125.568 44.6523 124.904 42.6602 124.904 40.082C124.904 38.3438 125.221 36.8203 125.856 35.5117C126.501 34.1934 127.423 33.1777 128.625 32.4648C129.826 31.7422 131.252 31.3809 132.902 31.3809C135.099 31.3809 136.784 32.0107 137.956 33.2705C139.128 34.5303 139.714 36.249 139.714 38.4268C139.714 38.9053 139.689 39.3691 139.64 39.8184C139.591 40.2676 139.557 40.5508 139.538 40.668L129.577 40.7705ZM132.609 34.9697C131.789 34.9697 131.12 35.248 130.602 35.8047C130.085 36.3516 129.762 37.0742 129.635 37.9727H135.07C135.07 37.0742 134.87 36.3516 134.469 35.8047C134.069 35.248 133.449 34.9697 132.609 34.9697ZM146.3 33.7393C146.3 33.7002 146.534 33.4707 147.003 33.0508C147.472 32.6309 148.014 32.25 148.629 31.9082C149.254 31.5566 149.869 31.3809 150.475 31.3809C150.953 31.3809 151.403 31.4199 151.822 31.498C152.242 31.5762 152.57 31.6592 152.804 31.7471C153.048 31.835 153.199 31.8887 153.258 31.9082L153.024 37.6797H150.328L149.874 35.1309C149.357 35.1309 148.854 35.2578 148.365 35.5117C147.887 35.7559 147.477 36.0293 147.135 36.332C146.803 36.625 146.637 36.7812 146.637 36.8008V44.7256L149.64 45.4727V47.875H139.738V45.4727L142.14 44.7256V34.9697L139.738 34.2227V31.8203L146.036 31.6738L146.3 33.7393ZM169.776 34.2227V31.8203L177.452 31.6738V34.2227L175.855 34.5889L171.871 47.875H167.286L164.913 40.2285L164.371 37.8848L163.624 41.1514L161.427 47.875H156.871L152.784 34.6475L151.466 34.2227V31.8203L159.332 31.6738V34.2227L157.442 34.5889L159.42 43.0117L162.598 32.1865L166.554 31.5273L169.835 43.0117L171.593 34.6768L169.776 34.2227ZM184.038 31.3809C186.451 31.3809 188.311 32.084 189.62 33.4902C190.938 34.8965 191.597 36.8936 191.597 39.4814C191.597 41.2588 191.265 42.8018 190.601 44.1104C189.947 45.4189 189.019 46.4248 187.818 47.1279C186.617 47.8213 185.205 48.168 183.584 48.168C178.487 48.168 175.938 45.4189 175.938 39.9209C175.938 38.1436 176.27 36.6152 176.934 35.3359C177.608 34.0566 178.555 33.0801 179.776 32.4062C180.997 31.7227 182.417 31.3809 184.038 31.3809ZM183.877 34.9697C182.745 34.9697 181.91 35.3359 181.372 36.0684C180.845 36.8008 180.581 38.0361 180.581 39.7744C180.581 41.4346 180.83 42.6504 181.329 43.4219C181.836 44.1934 182.637 44.5791 183.731 44.5791C184.834 44.5791 185.645 44.1934 186.163 43.4219C186.68 42.6504 186.939 41.3857 186.939 39.6279C186.939 38.0654 186.695 36.8984 186.206 36.127C185.718 35.3555 184.942 34.9697 183.877 34.9697ZM198.154 33.7393C198.154 33.7002 198.389 33.4707 198.857 33.0508C199.326 32.6309 199.868 32.25 200.483 31.9082C201.108 31.5566 201.724 31.3809 202.329 31.3809C202.808 31.3809 203.257 31.4199 203.677 31.498C204.097 31.5762 204.424 31.6592 204.658 31.7471C204.902 31.835 205.054 31.8887 205.112 31.9082L204.878 37.6797H202.183L201.729 35.1309C201.211 35.1309 200.708 35.2578 200.22 35.5117C199.741 35.7559 199.331 36.0293 198.989 36.332C198.657 36.625 198.491 36.7812 198.491 36.8008V44.7256L201.494 45.4727V47.875H191.592V45.4727L193.994 44.7256V34.9697L191.592 34.2227V31.8203L197.891 31.6738L198.154 33.7393ZM213.398 45.4727V47.875H203.774V45.4727L206.176 44.7256V27.8652L203.774 27.2646V24.8623L210.703 24.6279V44.7256L213.398 45.4727ZM223.324 46.2783C222.885 46.7275 222.294 47.1572 221.552 47.5674C220.81 47.9678 219.892 48.168 218.798 48.168C216.738 48.168 215.195 47.4697 214.169 46.0732C213.154 44.6768 212.646 42.709 212.646 40.1699C212.646 37.3086 213.329 35.1309 214.697 33.6367C216.064 32.1328 218.11 31.3809 220.834 31.3809C221.449 31.3809 222.201 31.4785 223.09 31.6738V27.8652L220.688 27.2646V24.8623L227.587 24.6279V44.667L229.989 45.2676V47.6699L223.588 47.875L223.324 46.2783ZM223.09 35.4238C222.446 35.1211 221.664 34.9697 220.746 34.9697C219.526 34.9697 218.642 35.3994 218.095 36.2588C217.558 37.1182 217.289 38.3389 217.289 39.9209C217.289 41.4639 217.519 42.626 217.978 43.4072C218.447 44.1885 219.179 44.5791 220.175 44.5791C220.732 44.5791 221.23 44.457 221.669 44.2129C222.109 43.959 222.455 43.6807 222.709 43.3779C222.963 43.0752 223.09 42.9043 223.09 42.8652V35.4238Z" fill="#EB4A58"/>
<defs>
<clipPath id="clip0_10_183">
<rect width="32.8375" height="32.8375" rx="16.4188" transform="matrix(1 0 0 -1 0 52.2937)" fill="white"/>
</clipPath>
</defs>
</svg>
